<svg xmlns="http://www.w3.org/2000/svg" viewBox="0 0 64 64"><g id="_12-Lawyer" data-name="12-Lawyer"><path d="M17,63H9c0-14,3-23,3-23S17,45,17,63Z" style="fill:#f2f6fc"/><path d="M55,63H47c0-18,5-23,5-23S55,49,55,63Z" style="fill:#f2f6fc"/><path d="M32,39l-2,2-3-3V36.08C28.24,36,29,36,29,36Z" style="fill:#9196aa"/><path d="M37,36.08V38l-3,3-2-2,3-3S35.76,36,37,36.08Z" style="fill:#9196aa"/><path d="M30,41l-2.2,3.08A32.136,32.136,0,0,1,27,38Z" style="fill:#cdd2e1"/><path d="M34,41l3-3a32.136,32.136,0,0,1-.8,6.08Z" style="fill:#cdd2e1"/><path d="M32,44l2.96,4.74A51.975,51.975,0,0,1,32,56a51.975,51.975,0,0,1-2.96-7.26Z" style="fill:#cdd2e1"/><polygon points="34 41 32 44 30 41 32 39 34 41" style="fill:#ffa200"/><polygon points="30 41 32 44 29.04 48.74 27 52 25 48 27.8 44.09 27.8 44.08 30 41" style="fill:#ff7b00"/><polygon points="36.2 44.09 39 48 37 52 34.96 48.74 32 44 34 41 36.2 44.08 36.2 44.09" style="fill:#ff7b00"/><path d="M29.04,48.74A51.975,51.975,0,0,0,32,56s-10,0-10-5a11.913,11.913,0,0,1,2-6s-2.75-1.83-2.98-8.14A50.262,50.262,0,0,1,27,36.08V38a32.136,32.136,0,0,0,.8,6.08v.01L25,48l2,4Z" style="fill:#dce1eb"/><path d="M40,45a11.913,11.913,0,0,1,2,6c0,5-10,5-10,5a51.975,51.975,0,0,0,2.96-7.26L37,52l2-4-2.8-3.91v-.01A32.136,32.136,0,0,0,37,38V36.08a50.262,50.262,0,0,1,5.98.78C42.75,43.17,40,45,40,45Z" style="fill:#dce1eb"/><path d="M52,40s-5,5-5,23H32V56s10,0,10-5a11.913,11.913,0,0,0-2-6s2.75-1.83,2.98-8.14A30.5,30.5,0,0,1,52,40Z" style="fill:#008cbe"/><path d="M32,56v7H17c0-18-5-23-5-23a30.5,30.5,0,0,1,9.02-3.14C21.25,43.17,24,45,24,45a11.913,11.913,0,0,0-2,6C22,56,32,56,32,56Z" style="fill:#00c8ff"/><path d="M46,29s0,3-4,3a10.238,10.238,0,0,1-4.65-.77A8.967,8.967,0,0,0,41,24V16c-9,0-9-5-9-5,0,5-9,5-9,5v8a8.954,8.954,0,0,0,2.64,6.36,8.413,8.413,0,0,0,1.01.87A10.238,10.238,0,0,1,22,32c-4,0-4-3-4-3,0-6,2-10,2-16a12,12,0,0,1,24,0C44,19,46,23,46,29Z" style="fill:#636978"/><path d="M25.073,29.74A15.76,15.76,0,0,1,22,30c-3.01,0-3.754-1.7-3.939-2.539C18.032,27.966,18,28.467,18,29c0,0,0,3,4,3a10.238,10.238,0,0,0,4.65-.77,8.413,8.413,0,0,1-1.01-.87C25.441,30.163,25.253,29.955,25.073,29.74Z" style="fill:#555a66"/><path d="M41,14c-9,0-9-5-9-5,0,5-9,5-9,5v2s9,0,9-5c0,0,0,5,9,5Z" style="fill:#555a66"/><path d="M42,30a15.71,15.71,0,0,1-3.078-.261A9.027,9.027,0,0,1,37.35,31.23,10.238,10.238,0,0,0,42,32c4,0,4-3,4-3,0-.533-.032-1.034-.061-1.539C45.754,28.3,45.01,30,42,30Z" style="fill:#555a66"/><path d="M26.65,31.23a8.413,8.413,0,0,1-1.01-.87A8.954,8.954,0,0,1,23,24V16s9,0,9-5c0,0,0,5,9,5v8a8.967,8.967,0,0,1-3.65,7.23,8.989,8.989,0,0,1-10.7,0Z" style="fill:#ffcdbe"/><path d="M32,11c0,5-9,5-9,5v2s9,0,9-5c0,0,0,5,9,5V16C32,16,32,11,32,11Z" style="fill:#faa68e"/><path d="M35,32.48V36l-3,3-3-3V32.48a8.914,8.914,0,0,0,6,0Z" style="fill:#faa68e"/><path d="M32,34A10.011,10.011,0,0,1,22,24V16a1,1,0,0,1,1-1c.08,0,8-.12,8-4a1,1,0,0,1,2,0c.005.149.213,4,8,4a1,1,0,0,1,1,1v8A10.011,10.011,0,0,1,32,34ZM24,16.96V24a8,8,0,0,0,16,0V16.979c-4.576-.192-6.826-1.707-7.932-3.165C30.187,16.257,25.947,16.827,24,16.96Z"/><path d="M55,64H9a1,1,0,0,1-1-1c0-14,2.927-22.942,3.052-23.316a.992.992,0,0,1,.452-.552c5.917-3.382,13.739-4,16.5-4.108V32h2v4a1,1,0,0,1-1,1c-.1,0-9.5.049-16.163,3.678A81.114,81.114,0,0,0,10.005,62H54a80.98,80.98,0,0,0-2.831-21.322C44.487,37.043,35.1,37,35,37a1,1,0,0,1-1-1V32h2v3.024c2.757.112,10.579.726,16.5,4.108a.992.992,0,0,1,.452.552C53.073,40.058,56,49,56,63A1,1,0,0,1,55,64Z"/><path d="M32,40a1,1,0,0,1-.707-.293l-3-3,1.414-1.414L32,37.586l2.293-2.293,1.414,1.414-3,3A1,1,0,0,1,32,40Z"/><path d="M34,42a1,1,0,0,1-.707-.293L32,40.414l-1.293,1.293a1,1,0,0,1-1.414,0l-3-3A1,1,0,0,1,26,38V36h2v1.586l2,2,1.293-1.293a1,1,0,0,1,1.414,0L34,39.586l2-2V36h2v2a1,1,0,0,1-.293.707l-3,3A1,1,0,0,1,34,42Z"/><path d="M18,63H16c0-17.2-4.667-22.25-4.714-22.3l1.421-1.407C12.923,39.509,18,44.8,18,63Z"/><path d="M37,53a1,1,0,0,1-.848-.47L31.16,44.542l-1.992-2.987,1.664-1.11L32,42.2l1.168-1.752A1,1,0,0,1,33.983,40H34a1,1,0,0,1,.813.419l5,7a1,1,0,0,1,.082,1.028l-2,4a1,1,0,0,1-.847.552Zm-3.81-8.982,3.713,5.94.933-1.867L34.028,42.76Z"/><path d="M27,53h-.048a1,1,0,0,1-.847-.552l-2-4a1,1,0,0,1,.082-1.028l5-7,1.626,1.162-4.649,6.51.933,1.867,4.055-6.488,1.7,1.06-5,8A1,1,0,0,1,27,53Z"/><path d="M32,57a1,1,0,0,1-.9-.554,53.179,53.179,0,0,1-3.016-7.4l1.9-.611A50.632,50.632,0,0,0,32,53.662a50.632,50.632,0,0,0,2.008-5.227l1.9.611a53.179,53.179,0,0,1-3.016,7.4A1,1,0,0,1,32,57Z"/><path d="M26.822,44.29A32.987,32.987,0,0,1,26,38h2a31.784,31.784,0,0,0,.777,5.872.977.977,0,0,1,.023.209l-1.024.005Z"/><path d="M37.178,44.3l-1.955-.418A31.918,31.918,0,0,0,36,38h2A33.112,33.112,0,0,1,37.178,44.3Z"/><path d="M32,57V55c.091,0,9-.118,9-4a11.046,11.046,0,0,0-1.832-5.445,1,1,0,0,1,.277-1.387C39.458,44.159,42,42.27,42,36h2c0,5.356-1.708,8.044-2.721,9.167A12.77,12.77,0,0,1,43,51C43,56.932,32.449,57,32,57Z"/><path d="M33,63H31V56.966C28.274,56.808,21,55.925,21,51a12.77,12.77,0,0,1,1.721-5.833C21.708,44.044,20,41.356,20,36h2c0,6.27,2.542,8.159,2.567,8.177a1.013,1.013,0,0,1,.265,1.378A10.9,10.9,0,0,0,23,51c0,3.891,8.91,4,9,4a1,1,0,0,1,1,1Z"/><path d="M48,63H46c0-18.2,5.077-23.491,5.293-23.707l1.414,1.414L52,40l.714.7C52.667,40.75,48,45.8,48,63Z"/><path d="M42,33c-4.2,0-5.491-1.077-5.707-1.293l1.414-1.414h0c.01,0,1.01.708,4.294.708,2.966,0,3-1.918,3-2a37.806,37.806,0,0,0-.98-7.8A39.88,39.88,0,0,1,43,13a11,11,0,0,0-22,0,39.88,39.88,0,0,1-1.02,8.2A37.806,37.806,0,0,0,19,29c.01.322.2,2,3,2,3.355,0,4.326-.739,4.336-.747l1.371,1.454C27.491,31.923,26.2,33,22,33c-3.955,0-5-2.617-5-4a39.88,39.88,0,0,1,1.02-8.2A37.806,37.806,0,0,0,19,13a13,13,0,0,1,26,0,37.806,37.806,0,0,0,.98,7.8A39.88,39.88,0,0,1,47,29C47,30.383,45.955,33,42,33Z"/></g></svg>